<svg width="42" height="42" viewBox="0 0 42 42" fill="none" xmlns="http://www.w3.org/2000/svg">
<circle cx="21" cy="21" r="21" fill="#6E46E6"/>
<rect width="24.2197" height="24.2197" transform="translate(8.89014 8.89014)" fill="#6E46E6"/>
<path d="M11.7014 20.7891C11.7284 19.6079 11.9717 18.4617 12.4285 17.3832C12.8962 16.2749 13.5666 15.2829 14.4207 14.426C15.2749 13.5692 16.2696 12.8988 17.3779 12.4312C18.524 11.9473 19.7404 11.7013 20.9973 11.7013C22.2543 11.7013 23.4707 11.9473 24.6141 12.4312C25.7192 12.8978 26.7227 13.5754 27.5686 14.426C27.8362 14.6936 28.0875 14.9775 28.32 15.2748L26.6928 16.5453C26.6606 16.5702 26.636 16.6037 26.622 16.6419C26.608 16.6801 26.6051 16.7215 26.6136 16.7613C26.622 16.8011 26.6416 16.8377 26.6699 16.8669C26.6983 16.8961 26.7343 16.9167 26.7738 16.9264L31.5232 18.0887C31.6583 18.1212 31.7908 18.0184 31.7908 17.8806L31.8124 12.9907C31.8124 12.8096 31.6043 12.7069 31.4637 12.8204L29.9392 14.0125C27.8605 11.3526 24.6276 9.64697 20.9946 9.64697C14.8019 9.64697 9.7633 14.6098 9.64707 20.7783C9.64635 20.8071 9.65141 20.8358 9.66195 20.8627C9.6725 20.8896 9.68831 20.9141 9.70846 20.9347C9.72862 20.9554 9.7527 20.9718 9.7793 20.983C9.80589 20.9942 9.83446 21 9.86332 20.9999H11.4852C11.6041 20.9999 11.6987 20.9053 11.7014 20.7891ZM32.1368 20.9999H30.5149C30.396 20.9999 30.3014 21.0946 30.2987 21.2108C30.2716 22.392 30.0284 23.5381 29.5715 24.6167C29.1039 25.7249 28.4335 26.7197 27.5794 27.5739C26.7172 28.4396 25.6922 29.126 24.5635 29.5937C23.4347 30.0613 22.2245 30.3009 21.0027 30.2986C19.7814 30.3009 18.5716 30.0613 17.4433 29.5936C16.315 29.126 15.2905 28.4395 14.4288 27.5739C14.1612 27.3063 13.9098 27.0224 13.6774 26.7251L15.3046 25.4546C15.3368 25.4297 15.3613 25.3962 15.3754 25.358C15.3894 25.3198 15.3923 25.2784 15.3838 25.2386C15.3754 25.1988 15.3558 25.1622 15.3275 25.133C15.2991 25.1038 15.2631 25.0831 15.2235 25.0735L10.4742 23.9112C10.3391 23.8787 10.2066 23.9815 10.2066 24.1193L10.1877 29.0119C10.1877 29.193 10.3958 29.2957 10.5364 29.1822L12.0609 27.9901C14.1396 30.6473 17.3725 32.3529 21.0055 32.3529C27.2009 32.3529 32.2368 27.3873 32.353 21.2216C32.3537 21.1928 32.3487 21.164 32.3381 21.1372C32.3276 21.1103 32.3118 21.0858 32.2916 21.0652C32.2715 21.0445 32.2474 21.0281 32.2208 21.0169C32.1942 21.0057 32.1656 20.9999 32.1368 20.9999Z" fill="white"/>
</svg>
